<svg xmlns="http://www.w3.org/2000/svg" width="1802" height="524"><path d="M0 0 C1.04199554 -0.01292336 1.04199554 -0.01292336 2.1050415 -0.02610779 C4.40260027 -0.04881951 6.6989441 -0.04201899 8.99658203 -0.03295898 C10.59457767 -0.0381933 12.1925702 -0.04446907 13.79055786 -0.05174255 C17.14144414 -0.06215703 20.49190607 -0.05757211 23.84277344 -0.04296875 C28.13276997 -0.02580145 32.4214246 -0.04924367 36.71127129 -0.08445835 C40.0125106 -0.10644572 43.3134297 -0.1049874 46.61471939 -0.09669304 C48.19593907 -0.0958738 49.77718233 -0.10273205 51.35833359 -0.11746407 C53.57305385 -0.13493132 55.78537523 -0.12035323 58 -0.09765625 C59.88838089 -0.09621361 59.88838089 -0.09621361 61.81491089 -0.09474182 C66.08791396 0.71511401 67.47199687 2.14173579 70.12939453 5.53344727 C71.50289917 8.25054932 71.50289917 8.25054932 72.5703125 11.23364258 C72.9824852 12.36358139 73.3946579 13.4935202 73.81932068 14.65769958 C74.24906693 15.87997757 74.67881317 17.10225555 75.12158203 18.36157227 C75.58847224 19.6569114 76.05664621 20.95178845 76.52601624 22.24623108 C77.77663193 25.70559247 79.01026512 29.17078296 80.24070358 32.63736343 C81.51461947 36.21725435 82.8040247 39.79155065 84.0925293 43.36621094 C85.89630658 48.37382875 87.69568373 53.38298 89.48916721 58.39429379 C92.28176122 66.19520777 95.11116421 73.9817543 97.97705078 81.75610352 C98.33448364 82.72637482 98.6919165 83.69664612 99.06018066 84.69631958 C100.38232074 88.28310735 101.7056687 91.86944265 103.03192139 95.45471191 C103.90977777 97.83015572 104.7837144 100.20700533 105.65673828 102.58422852 C105.91181656 103.2707399 106.16689484 103.95725128 106.42970276 104.66456604 C108.12939453 109.3057492 108.12939453 109.3057492 108.12939453 111.53344727 C111.03564455 110.08032226 111.09111805 108.31975104 112.13330078 105.27172852 C112.53556885 104.11318359 112.93783691 102.95463867 113.35229492 101.76098633 C113.56902863 101.12713013 113.78576233 100.49327393 114.00906372 99.84020996 C115.20847988 96.33721791 116.4349706 92.84372808 117.66064453 89.34985352 C117.92905655 88.58361664 118.19746857 87.81737976 118.47401428 87.02792358 C122.09315611 76.7359829 125.89790303 66.5119074 129.69189453 56.28344727 C130.05842133 55.29519958 130.42494812 54.3069519 130.80258179 53.28875732 C132.2484889 49.39101828 133.6945702 45.49334455 135.14189148 41.59613037 C137.222369 35.99102328 139.28747874 30.38061886 141.33642578 24.76391602 C141.80106632 23.49401466 142.26582319 22.22415586 142.73071289 20.9543457 C143.54930911 18.7155627 144.36423621 16.47543284 145.17456055 14.23364258 C145.70521118 12.78683105 145.70521118 12.78683105 146.24658203 11.31079102 C146.54161621 10.49860107 146.83665039 9.68641113 147.140625 8.84960938 C150.0290193 2.08363488 150.0290193 2.08363488 153.12939453 0.53344727 C155.39041694 0.42594139 157.65466905 0.3845266 159.91821289 0.37231445 C160.61594315 0.36734955 161.3136734 0.36238464 162.032547 0.35726929 C164.34478738 0.34264269 166.6569592 0.3358454 168.96923828 0.33032227 C170.57345075 0.32457187 172.17766319 0.31881413 173.78187561 0.31304932 C177.14698609 0.30253836 180.51207267 0.2966961 183.87719727 0.29321289 C188.19284333 0.28772341 192.50817465 0.26368634 196.82372189 0.23524094 C200.13766916 0.2166352 203.45154025 0.2114101 206.76553535 0.20987701 C208.35678392 0.20684601 209.948031 0.19880244 211.53922844 0.18569183 C213.76345806 0.16867147 215.98691365 0.1705011 218.21118164 0.17700195 C219.47755966 0.17335632 220.74393768 0.16971069 222.0486908 0.16595459 C225.12939453 0.53344727 225.12939453 0.53344727 226.79851788 1.74672407 C228.56025383 4.11188276 228.50430595 5.55255781 228.50412464 8.48851109 C228.51133118 9.51736913 228.51853773 10.54622718 228.52596265 11.60626274 C228.51858837 12.74009878 228.51121408 13.87393481 228.50361633 15.04212952 C228.50759074 16.24384605 228.51156515 17.44556259 228.51565999 18.68369478 C228.52363796 22.02530203 228.5181009 25.36639902 228.50690949 28.70796502 C228.49808618 32.30922317 228.50650552 35.91044574 228.51277161 39.51170349 C228.52227232 46.56861194 228.51564884 53.62541834 228.50350866 60.68231923 C228.48990645 68.89408177 228.49152492 77.10581983 228.49364199 85.31759077 C228.49683369 99.96516615 228.48515345 114.61269293 228.46557617 129.26025391 C228.44656776 143.4858549 228.43948931 157.71139894 228.44506836 171.93701172 C228.45112067 187.41521435 228.45095941 202.89339192 228.43958253 218.37159246 C228.43837519 220.02072775 228.4371692 221.66986304 228.43596458 223.31899834 C228.43536105 224.13048037 228.43475751 224.9419624 228.43413568 225.7780348 C228.43025005 231.50738661 228.43065263 237.23672912 228.43255043 242.96608162 C228.43466846 249.94371002 228.42947809 256.92128843 228.41493688 263.89890272 C228.40767343 267.46163738 228.40363238 271.02429909 228.40818024 274.58703995 C228.41298156 278.44199222 228.40237871 282.29681081 228.39009094 286.15174866 C228.39387027 287.28781541 228.39764959 288.42388217 228.40154344 289.59437519 C228.39571124 290.62062549 228.38987905 291.64687579 228.38387012 292.70422459 C228.38300335 293.59494114 228.38213657 294.4856577 228.38124353 295.40336567 C228.12939453 297.53344727 228.12939453 297.53344727 226.12939453 299.53344727 C223.47938538 299.79414368 223.47938538 299.79414368 220.07495117 299.80810547 C218.80345718 299.81763748 217.5319632 299.82716949 216.22193909 299.83699036 C214.82780937 299.83672893 213.43367964 299.83579192 212.03955078 299.83422852 C210.61469904 299.83811414 209.18984846 299.84244853 207.76499939 299.84721375 C204.77648161 299.85468181 201.78808194 299.85438061 198.79956055 299.84912109 C194.96813779 299.84332715 191.13719855 299.86025224 187.30585575 299.88346577 C184.36247425 299.8981923 181.41920947 299.89907629 178.47579765 299.89595604 C177.06318644 299.89646985 175.6505688 299.90171887 174.23799324 299.91176796 C172.26311041 299.92409197 170.28813013 299.91541242 168.31323242 299.90576172 C166.6268441 299.90670586 166.6268441 299.90670586 164.90638733 299.90766907 C162.12939453 299.53344727 162.12939453 299.53344727 160.47922134 298.33595276 C158.65585754 295.90110465 158.75463266 294.34691413 158.75517273 291.31913757 C158.74815842 290.23716599 158.7411441 289.1551944 158.73391724 288.04043579 C158.74156097 286.85178925 158.74920471 285.6631427 158.75708008 284.43847656 C158.75342941 283.18544235 158.74977875 281.93240814 158.74601746 280.6414032 C158.73657829 277.18808769 158.746081 273.73505453 158.75934958 270.28176093 C158.77073402 266.62239569 158.76654851 262.96304305 158.76460266 259.30366516 C158.76371709 253.11190271 158.77481499 246.92024906 158.79321289 240.72851562 C158.81171883 234.46708618 158.81913875 228.2057908 158.8137207 221.94433594 C158.7415079 135.7000581 158.7415079 135.7000581 162.12939453 103.53344727 C160.15929901 103.75305162 160.15929901 103.75305162 158.12939453 104.53344727 C156.9547926 107.43863069 156.08091464 110.14334089 155.27392578 113.15454102 C155.01541336 114.05976501 154.75690094 114.96498901 154.49055481 115.89764404 C153.92634715 117.87448268 153.36912021 119.85332352 152.81793213 121.83383179 C151.31369902 127.22053322 149.74414254 132.58800523 148.17236328 137.95532227 C147.84498169 139.07492844 147.5176001 140.19453461 147.18029785 141.34806824 C143.67384099 153.24179342 139.7717682 164.99134457 135.75439453 176.72094727 C135.22830597 178.25871323 135.22830597 178.25871323 134.69158936 179.82754517 C127.1412424 201.83817221 119.19267375 223.70627683 111.12939453 245.53344727 C109.25665283 245.31521606 109.25665283 245.31521606 107.12939453 244.53344727 C105.99676514 242.60348511 105.99676514 242.60348511 105.09326172 240.02514648 C104.56967323 238.56841774 104.56967323 238.56841774 104.0355072 237.08226013 C103.66945877 236.01169876 103.30341034 234.94113739 102.92626953 233.83813477 C102.33375145 232.16685265 102.33375145 232.16685265 101.72926331 230.46180725 C100.65392008 227.41722903 99.59334135 224.3680037 98.53976822 221.31583786 C97.43458936 218.12369408 96.3123385 214.93755638 95.19262695 211.75048828 C93.13846588 205.89348796 91.10268778 200.03028368 89.07606602 194.16370296 C87.64832504 190.03104965 86.2139238 185.90078472 84.77441406 181.7722168 C62.65182089 118.28597309 62.65182089 118.28597309 61.12939453 103.53344727 C59.80939453 103.86344727 58.48939453 104.19344727 57.12939453 104.53344727 C57.18474365 105.65686523 57.24009277 106.7802832 57.29711914 107.93774414 C57.51251927 112.33660901 57.72145053 116.73576601 57.92895508 121.13500977 C58.0175102 122.99576437 58.10755047 124.85644922 58.19946289 126.71704102 C59.9497372 162.23098684 60.2970204 197.74778509 60.25976562 233.29907227 C60.25396236 238.88627398 60.25743567 244.47342874 60.26333809 250.06062889 C60.26695373 254.43248856 60.2658023 258.80433705 60.2632103 263.17619705 C60.26254927 265.23891836 60.26334017 267.30164073 60.26568985 269.36436081 C60.26824482 272.22462427 60.2643407 275.08481062 60.25878906 277.94506836 C60.26081329 278.77199692 60.26283752 279.59892548 60.2649231 280.45091248 C60.20772107 296.45512073 60.20772107 296.45512073 57.12939453 299.53344727 C54.47265625 299.78741455 54.47265625 299.78741455 51.05908203 299.79223633 C49.14699951 299.80169281 49.14699951 299.80169281 47.19628906 299.81134033 C45.79898949 299.80776066 44.40169117 299.80365872 43.00439453 299.79907227 C41.57714776 299.80041898 40.14990144 299.80235956 38.72265625 299.80487061 C35.72993608 299.80782161 32.73733522 299.80352509 29.74462891 299.79418945 C25.9042308 299.78279482 22.06411221 299.78935444 18.22372437 299.80133438 C15.27610154 299.80855369 12.32854522 299.80626475 9.38092041 299.8010788 C7.964701 299.79974249 6.54847559 299.80138936 5.13226318 299.8060379 C3.1547456 299.81110401 1.17720692 299.80201634 -0.80029297 299.79223633 C-2.49001221 299.78984955 -2.49001221 299.78984955 -4.21386719 299.78741455 C-6.87060547 299.53344727 -6.87060547 299.53344727 -8.87060547 297.53344727 C-9.07663764 294.50553202 -9.15565098 291.56801291 -9.14907837 288.53825378 C-9.15487077 287.59388736 -9.16066317 286.64952093 -9.1666311 285.67653733 C-9.18372743 282.48972794 -9.18651638 279.30306259 -9.18945312 276.11621094 C-9.19874795 273.83740379 -9.20891594 271.55860007 -9.21989441 269.27980042 C-9.24734303 263.05755768 -9.2624015 256.83533783 -9.27532244 250.61305022 C-9.29098325 244.05811364 -9.31779238 237.50322259 -9.34335327 230.94831848 C-9.38530029 219.8838555 -9.41946698 208.81938618 -9.44873047 197.75488281 C-9.47854047 186.49021391 -9.51280291 175.22557353 -9.55322266 163.9609375 C-9.5556842 163.27455038 -9.55814575 162.58816325 -9.56068189 161.88097652 C-9.57060766 159.11801229 -9.58056159 156.35504817 -9.59055386 153.59208418 C-9.65499106 135.75429278 -9.71500267 117.91648372 -9.7694397 100.07865906 C-9.77315807 98.86392204 -9.77687643 97.64918502 -9.78070748 96.39763778 C-9.79831561 90.43921293 -9.81313335 84.48080089 -9.82244301 78.52235699 C-9.82618926 76.20088889 -9.82997521 73.87942085 -9.83380127 71.55795288 C-9.83563443 70.41627484 -9.83746759 69.2745968 -9.8393563 68.09832245 C-9.85442417 60.77239844 -9.89693368 53.4470658 -9.95578778 46.12136692 C-9.99380804 41.16100837 -10.02035116 36.20062365 -10.04517436 31.24018347 C-10.05985782 28.88836724 -10.07986436 26.53657759 -10.10546613 24.18485487 C-10.14017801 20.95403324 -10.15657683 17.72360335 -10.16879272 14.49263 C-10.1838038 13.53706022 -10.19881488 12.58149044 -10.21428084 11.596964 C-10.21249156 5.20062517 -10.21249156 5.20062517 -8.54325104 1.94316483 C-5.86136992 -0.31714362 -3.44740332 0.01699554 0 0 Z " fill="#006DB1" transform="translate(905.87060546875,106.466552734375)"></path><path d="M0 0 C1.77032593 0.00845947 1.77032593 0.00845947 3.57641602 0.01708984 C21.2532791 0.26140913 49.62691646 3.18941646 62.75 16.3125 C62.99050903 19.134552 62.99050903 19.134552 62.97705078 22.78173828 C62.97734283 23.44527313 62.97763489 24.10880798 62.97793579 24.79244995 C62.97654056 26.98936972 62.96097067 29.18595186 62.9453125 31.3828125 C62.94158305 32.90452896 62.93873576 34.42624781 62.93673706 35.94796753 C62.92909523 39.95606092 62.90944213 43.9640097 62.8873291 47.9720459 C62.86688244 52.06077112 62.85773788 56.14951966 62.84765625 60.23828125 C62.82619667 68.26308724 62.79205421 76.28777564 62.75 84.3125 C57.73881284 84.3125 57.0064503 83.1156274 53.375 79.8125 C44.07716061 71.69154733 33.61652077 65.87245623 21.75 62.3125 C20.86054688 62.02632812 20.86054688 62.02632812 19.953125 61.734375 C10.44616597 59.91389348 -0.91813367 60.06651009 -9.25 65.3125 C-14.90515632 69.39235456 -19.50904883 73.34869531 -21.25 80.3125 C-22.20906502 89.202295 -21.1926591 95.28016125 -15.6953125 102.296875 C-7.63189343 111.22546779 4.04251962 115.95690883 14.56469727 121.35766602 C41.80523053 135.35134431 67.12274103 149.3912895 78.03515625 179.90625 C85.98335797 206.57118481 80.50260338 234.62453573 67.9375 258.9375 C54.83024004 282.2095738 32.28999367 296.16009702 7.54296875 304.3046875 C-2.2405925 306.90423313 -11.56977902 307.70237235 -21.6875 307.6875 C-22.67385941 307.68618576 -22.67385941 307.68618576 -23.68014526 307.68484497 C-35.2803449 307.63411856 -46.09129117 306.50490433 -57.25 303.3125 C-58.55420898 302.9424585 -58.55420898 302.9424585 -59.88476562 302.56494141 C-69.27600242 299.82330615 -78.32731531 296.62049995 -87 292.0625 C-87.62624268 291.7334668 -88.25248535 291.40443359 -88.89770508 291.06542969 C-93.11813092 288.70810725 -93.11813092 288.70810725 -94.25 285.3125 C-94.33961953 283.11974981 -94.36758191 280.92431342 -94.36352539 278.72973633 C-94.36367142 278.06605545 -94.36381744 277.40237457 -94.3639679 276.71858215 C-94.36327182 274.52719848 -94.3554937 272.33590005 -94.34765625 270.14453125 C-94.34579099 268.62424262 -94.34436759 267.10395339 -94.34336853 265.58366394 C-94.33955188 261.58385557 -94.32972885 257.58408356 -94.31866455 253.58428955 C-94.30843213 249.50216158 -94.30386698 245.42002773 -94.29882812 241.33789062 C-94.28810583 233.32941041 -94.27103961 225.32095973 -94.25 217.3125 C-92.27 216.3225 -92.27 216.3225 -90.25 215.3125 C-89.62996094 215.91835938 -89.00992188 216.52421875 -88.37109375 217.1484375 C-71.25595502 233.3418002 -50.95951768 244.9148198 -26.83325195 244.73217773 C-16.26006984 244.38343878 -7.80602659 240.80972483 -0.25 233.3125 C6.79564456 224.63395928 8.80422878 216.41526381 7.75 205.3125 C4.2257433 191.4687132 -8.65450908 183.61630501 -20.12426758 176.69873047 C-26.15602261 173.11999537 -32.26615897 169.75551118 -38.50805664 166.55786133 C-61.89806029 154.56786951 -81.78520601 138.47307735 -91.25 113.3125 C-97.96645231 92.4675105 -94.94509308 66.80161569 -85.25 47.3125 C-73.58831313 25.94887032 -55.63961156 11.4717444 -32.5625 3.9375 C-21.79028245 1.00564174 -11.14121536 -0.05647658 0 0 Z " fill="#1F1A17" transform="translate(115.25,102.6875)"></path><path d="M0 0 C20.65241141 18.07085998 31.18045603 42.59163507 33.3125 69.8046875 C34.23740648 91.7298773 32.8894313 112.14427111 25.3125 132.8046875 C24.66667969 134.57585937 24.66667969 134.57585937 24.0078125 136.3828125 C16.57359746 155.11535435 4.10435729 171.01390213 -13.6875 180.8046875 C-14.49703125 181.26359375 -15.3065625 181.7225 -16.140625 182.1953125 C-39.63816725 194.77786738 -69.0337695 195.59462615 -94.1940918 188.10791016 C-106.58519348 184.10113908 -118.0610118 177.57101421 -127.6875 168.8046875 C-128.28304687 168.30066406 -128.87859375 167.79664063 -129.4921875 167.27734375 C-149.28318941 149.3559987 -156.30312697 119.36494083 -157.6875 93.8046875 C-158.57733559 70.15663255 -154.06084301 48.08512495 -143.6875 26.8046875 C-142.96240234 25.29455078 -142.96240234 25.29455078 -142.22265625 23.75390625 C-132.19420108 4.11369071 -115.00930001 -9.40797443 -94.26171875 -16.1640625 C-61.74407944 -25.54620105 -26.66702967 -21.78324226 0 0 Z M-77.875 39.3671875 C-86.47593699 51.75253677 -87.08997954 67.24559143 -87.6875 81.8046875 C-87.73003906 82.81402344 -87.77257812 83.82335937 -87.81640625 84.86328125 C-88.15650951 101.2109114 -87.04197799 121.86093027 -75.24609375 134.328125 C-71.41671037 137.78756795 -67.72168102 139.76095156 -62.51953125 139.8359375 C-55.70951195 139.3796548 -51.44727881 136.75326988 -46.625 131.9921875 C-33.53775474 115.88216643 -35.53620465 87.69779237 -36.96484375 68.390625 C-38.18639032 57.33853697 -40.79538795 44.06387453 -48.6875 35.8046875 C-53.74913277 31.95923652 -58.80689964 31.15250627 -65.078125 31.4296875 C-70.86556128 32.26141487 -74.21019341 34.927484 -77.875 39.3671875 Z " fill="#1F1A17" transform="translate(377.6875,218.1953125)"></path><path d="M0 0 C16.45143581 14.56154931 23.47123625 34.91371462 25.06872559 56.38478088 C25.43654753 63.0538434 25.45599247 69.7217068 25.48365402 76.39953613 C25.49567693 79.05280367 25.51518397 81.70592472 25.53677368 84.35913086 C25.59760635 91.89407283 25.65213105 99.42899454 25.68579102 106.96411133 C25.77126162 142.77002012 25.77126162 142.77002012 33.13989258 177.6550293 C34.4593673 181.85212978 35.51134036 185.96638688 36.28442383 190.2956543 C34.47665111 192.10342702 31.70374358 191.45162728 29.26757812 191.47265625 C27.33503426 191.4919091 27.33503426 191.4919091 25.3634491 191.5115509 C23.94518415 191.5197182 22.52691487 191.52716195 21.10864258 191.53393555 C20.3974357 191.53801107 19.68622883 191.5420866 18.95347023 191.54628563 C15.18822136 191.56716551 11.42300913 191.58145807 7.65771484 191.59082031 C3.76687826 191.60188074 -0.12338573 191.63627 -4.01401997 191.67599201 C-7.00374925 191.70213398 -9.99334175 191.71051 -12.98317528 191.71410179 C-14.4173182 191.71897518 -15.85145472 191.7306107 -17.28548622 191.74913979 C-19.29369989 191.77347184 -21.30219091 191.77015227 -23.31054688 191.765625 C-25.02477592 191.77442436 -25.02477592 191.77442436 -26.77363586 191.78340149 C-30.37900412 191.18566392 -31.48963984 190.13532509 -33.71557617 187.2956543 C-35.19995117 184.2800293 -35.19995117 184.2800293 -36.46557617 181.0456543 C-36.89354492 179.96799805 -37.32151367 178.8903418 -37.76245117 177.7800293 C-38.07698242 176.96018555 -38.39151367 176.1403418 -38.71557617 175.2956543 C-39.68495117 176.1412793 -40.65432617 176.9869043 -41.65307617 177.8581543 C-55.74005938 189.85189101 -68.88799635 197.30473259 -88.02416992 196.0847168 C-100.86100139 194.45121843 -110.70924842 189.325048 -120.71557617 181.2956543 C-121.71717773 180.51319336 -122.7187793 179.73073242 -123.75073242 178.92456055 C-136.61803208 167.51521579 -142.44930581 150.24441378 -143.96557617 133.54174805 C-144.41975832 115.85703063 -137.72294513 100.55454396 -125.77807617 87.7956543 C-115.75785459 77.82055321 -102.95426188 71.83598636 -89.71557617 67.2956543 C-89.01464844 67.05250488 -88.3137207 66.80935547 -87.59155273 66.55883789 C-71.99599508 61.26047956 -55.87061398 58.31622549 -39.71557617 55.2956543 C-40.81638768 49.22335525 -43.44042938 44.81850519 -48.39916992 40.9987793 C-62.4467254 33.14423215 -78.78759503 34.4156258 -93.71557617 38.2956543 C-102.61287319 41.22211464 -112.01934337 45.5994215 -118.71557617 52.2956543 C-120.84057617 51.9206543 -120.84057617 51.9206543 -122.71557617 51.2956543 C-122.79152007 43.94505415 -122.84413119 36.59455483 -122.88037109 29.24365234 C-122.89547562 26.74198628 -122.91596046 24.24034677 -122.94189453 21.73876953 C-122.97820392 18.14698745 -122.99528592 14.55555488 -123.00854492 10.96362305 C-123.03177071 9.28069405 -123.03177071 9.28069405 -123.0554657 7.56376648 C-123.05569229 6.52291397 -123.05591888 5.48206146 -123.05615234 4.40966797 C-123.06281418 3.49255539 -123.06947601 2.57544281 -123.07633972 1.63053894 C-122.64466084 -1.16331422 -121.91940776 -1.99643442 -119.71557617 -3.7043457 C-116.57805876 -5.27003293 -113.26252829 -6.39185161 -109.96557617 -7.5793457 C-108.9970874 -7.92940674 -108.02859863 -8.27946777 -107.03076172 -8.64013672 C-73.29273956 -20.41577203 -29.3986402 -24.54719715 0 0 Z M-58.42260742 94.25268555 C-67.33978789 98.06565369 -73.66800377 103.11478121 -78.59057617 111.4831543 C-80.95560107 119.4979609 -80.58081579 127.39959471 -77.11401367 135.03393555 C-74.04363375 139.9997176 -69.89452024 143.27288463 -64.65307617 145.7331543 C-58.49004614 146.91330898 -54.27776964 146.46070258 -48.70776367 143.7565918 C-41.60208921 138.54576386 -39.42619981 131.46678708 -38.02758789 123.09545898 C-36.89369678 112.92060512 -37.43562874 102.51158226 -37.71557617 92.2956543 C-44.13587723 88.66539069 -51.81895576 91.91806122 -58.42260742 94.25268555 Z " fill="#006DB1" transform="translate(1308.715576171875,214.704345703125)"></path><path d="M0 0 C0.70382812 0.56203125 1.40765625 1.1240625 2.1328125 1.703125 C2.75414062 2.16203125 3.37546875 2.6209375 4.015625 3.09375 C17.28002655 13.44355211 24.5206319 30.46548739 27.1328125 46.703125 C28.17487274 55.5977839 28.29156765 64.49516512 28.33204269 73.43727493 C28.34408984 75.873409 28.36360588 78.30938524 28.38516235 80.74545288 C28.44588427 87.66455518 28.5002945 94.58363929 28.53417969 101.50292969 C28.67921164 129.54464591 29.0283526 157.19464029 38.2734375 184.01171875 C39.24421536 187.05201851 39.3541795 189.53019795 39.1328125 192.703125 C37.34816494 194.48777256 34.71166101 193.84006718 32.29956055 193.84838867 C31.05123947 193.85476852 29.8029184 193.86114838 28.51676941 193.86772156 C27.14269041 193.86925045 25.7686109 193.8703643 24.39453125 193.87109375 C22.99306707 193.87430533 21.59160323 193.87766932 20.19013977 193.88117981 C17.24695051 193.88717864 14.30379065 193.88901903 11.3605957 193.88842773 C7.59100781 193.88832628 3.82160898 193.90195807 0.05206585 193.91919994 C-2.84501509 193.93032734 -5.7420505 193.93234669 -8.63915062 193.93181801 C-10.02860348 193.9329978 -11.41805754 193.93741952 -12.8074894 193.94515038 C-14.75355221 193.95496095 -16.69967023 193.9508052 -18.64575195 193.94604492 C-19.75304153 193.94746994 -20.86033112 193.94889496 -22.00117493 193.95036316 C-24.87589133 193.70237416 -26.5043374 193.33216678 -28.8671875 191.703125 C-30.3515625 188.6640625 -30.3515625 188.6640625 -31.6171875 185.078125 C-32.04515625 183.88960937 -32.473125 182.70109375 -32.9140625 181.4765625 C-33.22859375 180.56132812 -33.543125 179.64609375 -33.8671875 178.703125 C-36.94628546 180.11150165 -39.37719278 181.8109522 -41.9921875 183.953125 C-55.95455102 194.89106776 -70.15526252 199.63274985 -87.8671875 197.703125 C-92.42319774 196.80061026 -96.57453289 195.46212323 -100.8671875 193.703125 C-101.72441406 193.37570312 -102.58164062 193.04828125 -103.46484375 192.7109375 C-119.1080368 185.91817221 -129.73392803 171.03627367 -135.8671875 155.703125 C-136.21007812 154.87683594 -136.55296875 154.05054688 -136.90625 153.19921875 C-141.95578524 138.49893625 -140.07885854 120.71075692 -133.8671875 106.703125 C-123.31301193 86.08149554 -101.43656138 74.35729361 -80.11132812 67.38671875 C-68.46751583 63.83986557 -56.50522966 61.40780511 -44.46337891 59.69067383 C-40.9417509 59.16884522 -38.88223322 58.71315548 -35.8671875 56.703125 C-35.78197763 53.2947302 -36.39273437 51.25471638 -38.62109375 48.6640625 C-48.32109085 39.65571737 -57.7401048 37.27135855 -70.75390625 37.48828125 C-87.35893789 38.12074165 -101.29136438 44.65257625 -114.8671875 53.703125 C-117.0546875 53.328125 -117.0546875 53.328125 -118.8671875 52.703125 C-118.96866936 45.816453 -119.0386874 38.92997408 -119.08691406 32.04272461 C-119.10702015 29.70020339 -119.13430916 27.3577323 -119.16894531 25.01538086 C-119.21750591 21.64684677 -119.24016672 18.27897669 -119.2578125 14.91015625 C-119.27845764 13.86414749 -119.29910278 12.81813873 -119.32037354 11.74043274 C-119.32260741 4.48966887 -119.32260741 4.48966887 -117.08081055 0.61791992 C-115.04290924 -1.14487482 -113.56602626 -2.22092862 -111.05859375 -3.140625 C-110.32157227 -3.41503418 -109.58455078 -3.68944336 -108.82519531 -3.97216797 C-108.03467773 -4.24432129 -107.24416016 -4.51647461 -106.4296875 -4.796875 C-105.60436523 -5.09094238 -104.77904297 -5.38500977 -103.92871094 -5.68798828 C-71.70104057 -16.79910298 -28.95098932 -21.9759985 0 0 Z M-65.8671875 102.703125 C-71.69569753 108.03396258 -75.33615125 112.78177738 -76.203125 120.81640625 C-76.31803613 130.22762793 -74.96614962 136.69028209 -68.4296875 143.640625 C-64.31062806 147.68322858 -60.1495108 148.99699275 -54.4296875 149.078125 C-49.44247553 148.97757637 -46.6602883 148.12616719 -42.8671875 144.703125 C-31.52102432 132.70860964 -33.58970753 114.21473714 -33.72192383 98.94873047 C-33.78260878 96.5329815 -33.78260878 96.5329815 -34.8671875 93.703125 C-43.01419415 89.67966471 -59.43113121 97.97778707 -65.8671875 102.703125 Z " fill="#1F1A17" transform="translate(687.8671875,212.296875)"></path><path d="M0 0 C1.31161102 -0.00960754 2.62322205 -0.01921509 3.97457886 -0.02911377 C5.41810941 -0.03396133 6.86164197 -0.03824026 8.30517578 -0.04199219 C9.77629601 -0.0477413 11.24741621 -0.05349906 12.71853638 -0.05926514 C15.80715282 -0.0697847 18.89574315 -0.07562098 21.984375 -0.07910156 C25.9447046 -0.08458594 29.9046903 -0.10860835 33.86491203 -0.13707352 C36.90521251 -0.15568631 39.94542998 -0.16090477 42.98578262 -0.16243744 C44.44585168 -0.165468 45.90591914 -0.17351014 47.36593246 -0.18662262 C49.40794853 -0.20365157 51.45010573 -0.19996264 53.4921875 -0.1953125 C54.65499237 -0.19895813 55.81779724 -0.20260376 57.01583862 -0.20635986 C59.87548828 0.16113281 59.87548828 0.16113281 61.69578552 1.29493713 C63.36170594 3.93029038 63.66803629 6.29628784 64.1340332 9.37670898 C64.33401413 10.65781052 64.53399506 11.93891205 64.74003601 13.25883484 C64.94560759 14.65721821 65.15090824 16.05564144 65.35595703 17.45410156 C65.57479315 18.88487507 65.79472285 20.31548171 66.01570129 21.7459259 C66.59377462 25.50738569 67.15696937 29.27092784 67.71710205 33.03509521 C68.29153266 36.8773031 68.87999634 40.71735757 69.46728516 44.55761719 C70.61710325 52.09008429 71.75121263 59.6248063 72.87548828 67.16113281 C73.20548828 67.16113281 73.53548828 67.16113281 73.87548828 67.16113281 C74.0589682 66.39327454 74.24244812 65.62541626 74.43148804 64.83428955 C76.16247539 57.59400875 77.89816605 50.35487943 79.63913536 43.11699295 C80.53399279 39.39599417 81.42703273 35.6745788 82.31591797 31.95214844 C83.17399416 28.35903518 84.03684572 24.76709949 84.90300369 21.17592621 C85.23242735 19.80643217 85.56013563 18.43652432 85.88608932 17.06620026 C86.34332834 15.14525607 86.80726559 13.22591001 87.27148438 11.30664062 C87.66453262 9.66782928 87.66453262 9.66782928 88.06552124 7.99591064 C88.78447988 5.4796502 89.51465256 3.39000333 90.87548828 1.16113281 C93.51263924 -0.15744267 95.47381468 0.04121577 98.42675781 0.04760742 C99.58781036 0.04768295 100.74886292 0.04775848 101.94509888 0.0478363 C103.20345551 0.05299759 104.46181213 0.05815887 105.75830078 0.06347656 C107.04284149 0.06489151 108.3273822 0.06630646 109.65084839 0.06776428 C113.0670567 0.0715837 116.48322254 0.08140908 119.89941406 0.09246826 C123.38492254 0.10269474 126.87043788 0.10726456 130.35595703 0.11230469 C137.19581823 0.12303186 144.03565122 0.14010139 150.87548828 0.16113281 C152.15933946 5.27146593 150.94000185 8.62302101 149.03564453 13.39550781 C148.5654187 14.61753906 148.5654187 14.61753906 148.08569336 15.86425781 C147.0483171 18.55131536 145.99314404 21.2310129 144.93798828 23.91113281 C144.21408684 25.77819502 143.4913648 27.64571489 142.76977539 29.51367188 C140.48965828 35.40324552 138.18540257 41.28319149 135.87548828 47.16113281 C135.49199219 48.13711426 135.10849609 49.1130957 134.71337891 50.11865234 C133.94693458 52.06880574 133.18033933 54.01889982 132.41358948 55.96893311 C131.2993958 58.80370787 130.18686002 61.63912923 129.07446289 64.47460938 C127.6724739 68.04776531 126.26082455 71.61688209 124.8425293 75.18359375 C124.1983867 76.81666039 123.55441588 78.44979479 122.91064453 80.08300781 C122.61657715 80.81559814 122.32250977 81.54818848 122.01953125 82.30297852 C117.42265272 94.02426202 120.76722502 102.01229984 125.54345703 113.17285156 C125.89558258 114.00790222 126.24770813 114.84295288 126.61050415 115.70330811 C127.36539943 117.49232769 128.12253613 119.28040289 128.88174438 121.06759644 C130.90844402 125.83911349 132.91827919 130.61773488 134.93017578 135.39550781 C135.34135147 136.37075912 135.75252716 137.34601044 136.17616272 138.35081482 C140.41123166 148.40704717 144.55832304 158.49874635 148.68798828 168.59863281 C149.01769623 169.40489105 149.34740417 170.21114929 149.68710327 171.0418396 C150.00796906 171.82652618 150.32883484 172.61121277 150.65942383 173.41967773 C151.12730064 174.56313408 151.12730064 174.56313408 151.60462952 175.72969055 C152.20501539 177.19888504 152.80397293 178.6686642 153.40135193 180.13908386 C154.70718026 183.34680884 156.0388293 186.53307061 157.43164062 189.70458984 C158.1212085 191.27829346 158.1212085 191.27829346 158.82470703 192.88378906 C159.22391357 193.76945557 159.62312012 194.65512207 160.03442383 195.56762695 C161.00183911 198.55074814 160.93324633 201.04295279 160.87548828 204.16113281 C151.40934849 204.25374611 141.94336425 204.32485341 132.47687054 204.3683815 C128.0813416 204.38927115 123.68612223 204.41761347 119.29077148 204.46289062 C115.05028548 204.50629994 110.81009753 204.53025954 106.56940651 204.54064178 C104.95021686 204.54804206 103.33104383 204.56249299 101.71198082 204.58405304 C99.44670529 204.61302306 97.1826668 204.61709171 94.91723633 204.61523438 C92.98197334 204.62855804 92.98197334 204.62855804 91.00761414 204.64215088 C87.87548828 204.16113281 87.87548828 204.16113281 86.03025818 202.57025146 C84.53770466 199.45643759 83.95614316 196.56548642 83.35742188 193.16113281 C83.16897957 192.11650879 83.16897957 192.11650879 82.97673035 191.05078125 C82.56538001 188.75594752 82.16966232 186.45870591 81.77392578 184.16113281 C81.49015002 182.56199597 81.20535521 180.96303966 80.91958618 179.36425781 C80.17054218 175.15888963 79.43453611 170.95134413 78.70147705 166.74316406 C77.80882188 161.6324746 76.90131029 156.52440712 75.99561501 151.41601562 C75.29111696 147.44110506 74.58895783 143.46582936 73.89389038 139.48925781 C73.70130898 138.39145996 73.70130898 138.39145996 73.50483704 137.27148438 C73.15865507 135.29736364 72.81382042 133.32300678 72.46908569 131.34863281 C72.01639342 128.91776536 71.51866653 126.54655305 70.87548828 124.16113281 C68.51263741 132.10360557 66.85938569 140.08167431 65.42764282 148.23963737 C65.05411049 150.36396576 64.67319078 152.48685486 64.2902832 154.60951233 C63.20422877 160.63533973 62.12836714 166.66293695 61.06396484 172.69262695 C60.40848386 176.40284299 59.7423331 180.11101264 59.06948853 183.81811714 C58.81661622 185.22356885 58.5678475 186.62976552 58.32333374 188.03669548 C57.98227513 189.9978356 57.62646521 191.95639302 57.27001953 193.91479492 C57.07255127 195.02745224 56.87508301 196.14010956 56.67163086 197.28648376 C55.82025354 200.36057007 55.2536727 202.02578956 52.87548828 204.16113281 C49.93318176 204.64215088 49.93318176 204.64215088 46.29272461 204.61523438 C45.62904373 204.61581848 44.96536285 204.61640259 44.28157043 204.61700439 C42.08968647 204.61421944 39.89916562 204.58311156 37.70751953 204.55175781 C36.18723799 204.5442968 34.66694682 204.53860321 33.14665222 204.53460693 C29.14659032 204.51933935 25.14711004 204.48004864 21.14727783 204.43579102 C17.0652249 204.39486209 12.98307792 204.37660105 8.90087891 204.35644531 C0.89214855 204.31355478 -7.11610922 204.24529067 -15.12451172 204.16113281 C-16.45655457 198.9411133 -15.05520405 195.64227496 -12.95263672 190.84863281 C-12.60300873 190.02282211 -12.25338074 189.19701141 -11.89315796 188.34617615 C-10.73243952 185.61246509 -9.55346807 182.88702209 -8.37451172 180.16113281 C-7.56119689 178.25421737 -6.74920537 176.34673703 -5.93847656 174.4387207 C-4.22854673 170.41911513 -2.51164575 166.40259192 -0.78955078 162.38818359 C3.1810475 153.12400074 7.09092385 143.834177 11.00646973 134.54663086 C12.22843761 131.65088713 13.45331909 128.75639411 14.67919922 125.86230469 C15.25726822 124.49634911 15.25726822 124.49634911 15.84701538 123.10279846 C16.55903572 121.42047321 17.271718 119.73842785 17.98526001 118.05674744 C18.63151452 116.52850228 19.27121873 114.99746883 19.9039917 113.46359253 C20.57326451 111.87740714 21.27674642 110.30536855 22.00762939 108.74661255 C25.95510507 99.9475773 26.06637842 92.06592025 22.66674805 83.05010986 C22.34246826 82.24627869 22.01818848 81.44244751 21.68408203 80.61425781 C21.17844727 79.29660431 21.17844727 79.29660431 20.66259766 77.95233154 C19.56290735 75.09840615 18.43802015 72.25515137 17.31298828 69.41113281 C16.54366409 67.42486049 15.77619041 65.43787051 15.01049805 63.45019531 C13.04196301 58.3518489 11.05325532 53.26167096 9.05712891 48.17407227 C6.12333384 40.69350101 3.20973766 33.20512197 0.30618286 25.71276855 C-0.67172796 23.20039863 -1.66116045 20.69280172 -2.65209961 18.18554688 C-3.24871529 16.65670929 -3.84500683 15.12774515 -4.44091797 13.59863281 C-4.71508545 12.91420105 -4.98925293 12.22976929 -5.27172852 11.52459717 C-6.64870637 7.96052849 -7.54514615 4.99367898 -7.12451172 1.16113281 C-5.30309039 -0.66028851 -2.44853672 0.01439754 0 0 Z " fill="#006DB1" transform="translate(1370.12451171875,201.8388671875)"></path><path d="M0 0 C8.5534877 -0.06947395 17.10685775 -0.12279776 25.66055775 -0.15543652 C29.63228627 -0.17110056 33.60382193 -0.19235199 37.57543945 -0.22631836 C41.40743089 -0.25888596 45.23923668 -0.27684745 49.07135582 -0.28463173 C50.53422659 -0.29017996 51.99708707 -0.30101425 53.45987892 -0.31719017 C55.50708696 -0.33893079 57.5535254 -0.34196847 59.60083008 -0.34057617 C61.34956169 -0.35056892 61.34956169 -0.35056892 63.13362122 -0.36076355 C66 0 66 0 67.82901001 1.23275757 C69.2522789 3.38073594 69.68049762 5.07943736 70.13500977 7.61645508 C70.30851456 8.55205765 70.48201935 9.48766022 70.66078186 10.45161438 C70.83588791 11.46402695 71.01099396 12.47643951 71.19140625 13.51953125 C71.47757057 15.09476814 71.47757057 15.09476814 71.76951599 16.701828 C72.37826838 20.07016641 72.97025853 23.44122381 73.5625 26.8125 C73.96446598 29.04120143 74.3674497 31.26971955 74.77148438 33.49804688 C76.71806296 44.30524641 78.59155659 55.10746757 80 66 C80.66 66 81.32 66 82 66 C82.15976318 64.40526855 82.15976318 64.40526855 82.32275391 62.77832031 C83.05693363 56.93847979 84.46752065 51.26501749 85.8359375 45.546875 C86.11595612 44.36909485 86.39597473 43.1913147 86.68447876 41.97784424 C87.27560306 39.49964635 87.86910369 37.02201422 88.46484375 34.54492188 C89.37475068 30.75103953 90.26965235 26.95381141 91.1640625 23.15625 C91.74127109 20.74457215 92.31936557 18.33310612 92.8984375 15.921875 C93.16417572 14.7864325 93.42991394 13.65098999 93.70370483 12.48114014 C94.08892807 10.89864471 94.08892807 10.89864471 94.48193359 9.28417969 C94.70319916 8.35788757 94.92446472 7.43159546 95.1524353 6.47723389 C96.0973997 3.7153234 96.88926157 2.03086378 99 0 C101.60063171 -0.48101807 101.60063171 -0.48101807 104.7565918 -0.45410156 C106.52808846 -0.45364838 106.52808846 -0.45364838 108.33537292 -0.45318604 C109.61044205 -0.43254089 110.88551117 -0.41189575 112.19921875 -0.390625 C114.15720146 -0.38213531 114.15720146 -0.38213531 116.15473938 -0.37347412 C119.62218946 -0.35821392 123.08896749 -0.31893032 126.55615234 -0.2746582 C130.09528512 -0.23371291 133.63452668 -0.21546479 137.17382812 -0.1953125 C144.11616119 -0.15243532 151.05804832 -0.08418015 158 0 C159.1541999 4.10899217 158.81751668 6.40855599 157.26855469 10.35571289 C156.86352722 11.40614273 156.45849976 12.45657257 156.04119873 13.53883362 C155.5893219 14.67199509 155.13744507 15.80515656 154.671875 16.97265625 C153.97641571 18.76019569 153.97641571 18.76019569 153.26690674 20.58384705 C152.02635958 23.77182644 150.77055832 26.95358159 149.51147461 30.13427734 C148.27717466 33.25979866 147.05729449 36.39088203 145.8359375 39.52148438 C138.12229844 59.25594858 138.12229844 59.25594858 134.60708237 67.90784168 C133.56796958 70.46834647 132.53752809 73.03229952 131.50778961 75.59658623 C130.78518285 77.38518411 130.04959471 79.16852019 129.31365967 80.95167542 C126.20312075 88.70678019 124.51458337 94.24566773 127.878479 102.28611755 C128.15576843 102.91357376 128.43305786 103.54102997 128.71875 104.1875 C129.00812439 104.87042618 129.29749878 105.55335236 129.59564209 106.25697327 C130.2235089 107.73478892 130.85707321 109.2101943 131.49572754 110.68338013 C132.51964478 113.04531588 133.52883611 115.41306233 134.53417969 117.78295898 C135.5957218 120.28515874 136.65806907 122.78697606 137.72479248 125.28697205 C142.35266607 136.13801443 146.80035293 147.06273612 151.25952148 157.98388672 C151.91644177 159.59214778 152.57342343 161.20038377 153.23046875 162.80859375 C153.7081797 163.97853882 153.7081797 163.97853882 154.19554138 165.17211914 C155.98993612 169.55870546 157.80619957 173.93510329 159.65048218 178.3009491 C160.46260221 180.22433912 161.26971087 182.14975079 162.07519531 184.07592773 C163.03667154 186.37024486 164.00801993 188.66046079 164.99121094 190.94555664 C165.40790039 191.94578857 165.82458984 192.94602051 166.25390625 193.9765625 C166.61814697 194.83330566 166.9823877 195.69004883 167.35766602 196.57275391 C168.1105249 199.41765054 167.65153233 201.16744761 167 204 C157.66421561 204.06946198 148.32851996 204.12279178 138.99253368 204.15543652 C134.65760875 204.17110311 130.3228604 204.19235934 125.98803711 204.22631836 C121.80591912 204.25887664 117.62397115 204.27684553 113.44173622 204.28463173 C111.84489578 204.29018162 110.24806481 204.30101906 108.65129662 204.31719017 C106.41730906 204.33891808 104.18402712 204.34196896 101.94995117 204.34057617 C100.67754074 204.34723801 99.40513031 204.35389984 98.09416199 204.36076355 C95 204 95 204 93.16525269 202.94078064 C91.40781572 200.01369051 90.95465064 196.92579527 90.40600586 193.60693359 C90.27223038 192.85707687 90.1384549 192.10722015 90.00062561 191.3346405 C89.71215957 189.70845866 89.4292301 188.08128715 89.15119743 186.45328903 C88.71169289 183.87998923 88.2579397 181.30956588 87.8004303 178.7394104 C86.99730042 174.21397551 86.20693269 169.68642068 85.42071533 165.15802002 C84.16082048 157.90180865 82.89088045 150.64746042 81.60348701 143.3960762 C81.15612226 140.85737971 80.71984963 138.31693784 80.28416443 135.7762146 C80.0114533 134.22881801 79.73828996 132.68150103 79.46459961 131.13427734 C79.34559296 130.42257889 79.2265863 129.71088043 79.10397339 128.97761536 C78.80258432 127.30502942 78.41013805 125.64929254 78 124 C77.34 123.67 76.68 123.34 76 123 C75.95817596 123.69227188 75.91635193 124.38454376 75.8732605 125.09779358 C75.27782577 133.51720248 73.93938068 141.70798604 72.3828125 149.99609375 C72.12215338 151.4018175 71.86173115 152.8075852 71.60153198 154.21339417 C71.05928561 157.13450625 70.51238579 160.05470047 69.96240234 162.97436523 C69.25999599 166.70671762 68.57233535 170.44162277 67.88839912 174.17739773 C67.35653616 177.07066108 66.81551585 179.96215599 66.27187729 182.85322762 C66.01438017 184.23008901 65.76003134 185.60754326 65.50897598 186.9855938 C65.15761115 188.90809766 64.79222287 190.82802241 64.42626953 192.74780273 C64.12101852 194.38228615 64.12101852 194.38228615 63.80960083 196.04978943 C62.92476202 199.27416955 62.1726035 201.4404015 60 204 C57.06442261 204.60800171 57.06442261 204.60800171 53.43310547 204.58349609 C52.77103088 204.58583252 52.1089563 204.58816895 51.42681885 204.59057617 C49.2394716 204.59219059 47.0542353 204.5581703 44.8671875 204.5234375 C43.34930177 204.51664923 41.83140551 204.51192634 40.31350708 204.50918579 C37.13398635 204.49850712 33.9551685 204.47180421 30.77587891 204.43212891 C26.69220741 204.38117473 22.60893946 204.35610753 18.52499199 204.34119225 C14.63900072 204.32643113 10.75310522 204.3011852 6.8671875 204.2734375 C6.12144344 204.26852673 5.37569939 204.26361595 4.60735703 204.25855637 C2.50749925 204.24234547 0.40786119 204.21894385 -1.69189453 204.19287109 C-2.888638 204.18001068 -4.08538147 204.16715027 -5.31838989 204.15390015 C-8 204 -8 204 -9 203 C-8.58378108 197.18849034 -6.76245495 192.46611746 -4.44921875 187.16015625 C-4.08282288 186.30066879 -3.716427 185.44118134 -3.33892822 184.5556488 C-2.54451919 182.69455998 -1.7463375 180.83507792 -0.9447937 178.97705078 C0.76713184 175.00861132 2.46107094 171.03257997 4.1559906 167.05685425 C5.04941497 164.96151411 5.94376899 162.86657014 6.83900452 160.77200317 C11.98934211 148.71296353 17.02728582 136.60744713 22.0625 124.5 C22.93326973 122.40890228 23.80411739 120.31783701 24.67504883 118.22680664 C25.48267915 116.28666043 26.29021965 114.34647683 27.09765625 112.40625 C27.46453552 111.52488876 27.83141479 110.64352753 28.20941162 109.73545837 C28.86880231 108.14919183 29.52326718 106.56086327 30.17141724 104.9699707 C30.82187638 103.42349218 31.55034499 101.90980062 32.30639648 100.41210938 C34.2146938 93.77572167 31.16474453 87.10727887 28.7109375 81 C28.3752626 80.14234039 28.03958771 79.28468079 27.69374084 78.40103149 C26.97093863 76.55661398 26.24411416 74.71376857 25.51364136 72.87237549 C23.96851756 68.97459354 22.4459367 65.0681381 20.92204285 61.16201782 C20.13427824 59.14322982 19.34554202 57.1248207 18.55586243 55.10678101 C14.79854769 45.50409773 11.08367018 35.88593795 7.43170166 26.24267578 C6.77216629 24.50615708 6.10874967 22.77110722 5.44134521 21.03759766 C4.51271111 18.62486836 3.59665574 16.20771992 2.68359375 13.7890625 C2.4094313 13.08472076 2.13526886 12.38037903 1.85279846 11.6546936 C0.33367304 7.58008616 -0.10779731 4.31754964 0 0 Z " fill="#006DB1" transform="translate(1546,202)"></path><path d="M0 0 C1.87709656 -0.01429802 1.87709656 -0.01429802 3.79211426 -0.02888489 C5.15893583 -0.02862349 6.52575742 -0.02768656 7.89257812 -0.02612305 C9.2935804 -0.03000994 10.69458149 -0.0343446 12.09558105 -0.03910828 C15.03104474 -0.04656869 17.96638814 -0.04628025 20.90185547 -0.04101562 C24.66487141 -0.03521651 28.42739586 -0.05216292 32.19033051 -0.0753603 C35.08309816 -0.09008549 37.97574704 -0.09097111 40.86854553 -0.08785057 C42.25603714 -0.08836425 43.64353531 -0.09361074 45.0309906 -0.10366249 C46.96984102 -0.11598662 48.90879068 -0.10730689 50.84765625 -0.09765625 C52.50287292 -0.09860039 52.50287292 -0.09860039 54.19152832 -0.0995636 C56.92382812 0.2746582 56.92382812 0.2746582 58.57100165 1.48950624 C60.35834141 3.84802977 60.29973508 5.26650109 60.30135155 8.21131134 C60.30917479 9.23606929 60.31699803 10.26082725 60.32505834 11.31663847 C60.31836618 12.44590144 60.31167401 13.5751644 60.30477905 14.73864746 C60.30945902 15.93557488 60.314139 17.1325023 60.31896079 18.36570024 C60.32887966 21.69397009 60.32527871 25.02173444 60.31600213 28.34997392 C60.30923177 31.93694213 60.31968283 35.52386525 60.32794189 39.11082458 C60.34130302 46.13998873 60.33839094 53.16905695 60.32970397 60.1982249 C60.32293717 65.90942542 60.32200635 71.62059899 60.32527542 77.33180237 C60.32573512 78.14371057 60.32619482 78.95561878 60.32666845 79.79213026 C60.3276276 81.44134947 60.32860023 83.09056868 60.32958622 84.73978788 C60.33814708 100.21556757 60.32829509 115.69129401 60.31218512 131.16706496 C60.29878131 144.45474642 60.3011092 157.74234926 60.31494141 171.0300293 C60.33098495 186.449282 60.33732305 201.86848798 60.32810462 217.28774786 C60.32714894 218.93100325 60.32620583 220.57425864 60.32527542 222.21751404 C60.32481259 223.02609125 60.32434977 223.83466846 60.32387292 224.667748 C60.32127934 230.37409619 60.32566192 236.08041482 60.33271408 241.78675842 C60.34111568 248.73802423 60.33887728 255.68918837 60.32287185 262.64044249 C60.31497097 266.18915888 60.31192821 269.73770557 60.32181931 273.28642082 C60.3323648 277.12793347 60.31979928 280.96916638 60.30477905 284.81066895 C60.31147122 285.93993191 60.31816338 287.06919488 60.32505834 288.23267794 C60.31332348 289.76981487 60.31332348 289.76981487 60.30135155 291.33800507 C60.30062096 292.66895368 60.30062096 292.66895368 60.29987562 294.02679014 C59.84314646 296.75694233 59.13138359 297.6465089 56.92382812 299.2746582 C54.19152832 299.64888 54.19152832 299.64888 50.84765625 299.64697266 C49.59625854 299.65320145 48.34486084 299.65943024 47.05554199 299.66584778 C45.68871666 299.65715967 44.3218952 299.64784169 42.95507812 299.63793945 C41.55407715 299.63742077 40.15307545 299.63793877 38.7520752 299.63945007 C35.8165398 299.63936037 32.88127917 299.6289362 29.94580078 299.61083984 C26.18285847 299.58815252 22.42031763 299.58760874 18.65732574 299.59435749 C15.7645511 299.59769888 12.871868 299.59106421 9.97911072 299.58122826 C8.5916339 299.57737889 7.2041469 299.57622695 5.81666565 299.5778141 C3.87775387 299.57818492 1.93885557 299.56408485 0 299.54931641 C-1.65521667 299.54240532 -1.65521667 299.54240532 -3.34387207 299.53535461 C-6.07617188 299.2746582 -6.07617188 299.2746582 -9.07617188 297.2746582 C-9.45221937 295.13701391 -9.45221937 295.13701391 -9.4536953 292.42702484 C-9.46151854 291.39667445 -9.46934178 290.36632405 -9.47740209 289.30475092 C-9.47070993 288.16411109 -9.46401776 287.02347127 -9.4571228 285.8482666 C-9.46180277 284.64332094 -9.46648275 283.43837527 -9.47130454 282.1969161 C-9.48123432 278.84165502 -9.47761475 275.48689427 -9.46834588 272.13166308 C-9.46158246 268.51742968 -9.4720231 264.9032413 -9.48028564 261.28901672 C-9.49365425 254.20457168 -9.49073138 247.12022176 -9.48204772 240.03577292 C-9.47528384 234.28020356 -9.47434882 228.52466094 -9.47761917 222.76908875 C-9.47807887 221.9512056 -9.47853857 221.13332246 -9.4790122 220.29065499 C-9.47997133 218.62935451 -9.48094397 216.96805404 -9.48192997 215.30675358 C-9.49049303 199.71369309 -9.48063541 184.12068543 -9.46452887 168.52763361 C-9.45112486 155.1361531 -9.45345269 141.74475059 -9.46728516 128.35327148 C-9.48332484 112.81757334 -9.48966897 97.28192156 -9.48044837 81.7462163 C-9.47949268 80.09088676 -9.47854957 78.43555721 -9.47761917 76.78022766 C-9.47715634 75.96568653 -9.47669352 75.1511454 -9.47621667 74.31192121 C-9.47362193 68.5605312 -9.47800816 62.8091705 -9.48505783 57.05778503 C-9.49345516 50.0526679 -9.49123009 43.04765167 -9.4752156 36.04254615 C-9.46730892 32.46560731 -9.46428172 28.88883694 -9.47416306 25.31189919 C-9.48469365 21.44151992 -9.4721552 17.57141903 -9.4571228 13.7010498 C-9.46381497 12.56040998 -9.47050713 11.41977015 -9.47740209 10.24456549 C-9.46957885 9.21421509 -9.46175561 8.1838647 -9.4536953 7.12229156 C-9.45320824 6.22799517 -9.45272118 5.33369878 -9.45221937 4.41230249 C-9.32812369 3.70687988 -9.20402802 3.00145726 -9.07617188 2.2746582 C-5.57188761 -0.06153131 -4.14494313 0.01730653 0 0 Z " fill="#1F1A17" transform="translate(455.076171875,106.725341796875)"></path><path d="M0 0 C0.71269043 -0.00636475 1.42538086 -0.01272949 2.15966797 -0.01928711 C7.18999208 0.101651 10.86064531 1.1256775 15.3125 3.5 C17.60306156 6.93584233 17.56098112 8.18402317 17.55541992 12.22485352 C17.56003487 13.9866671 17.56003487 13.9866671 17.56474304 15.78407288 C17.55396477 17.6872654 17.55396477 17.6872654 17.54296875 19.62890625 C17.54251053 20.92948471 17.54205231 22.23006317 17.5415802 23.5700531 C17.54001681 26.32141466 17.5317376 29.07264584 17.51831055 31.82397461 C17.50130417 35.35376519 17.49749678 38.88341273 17.49825573 42.41323948 C17.49791877 45.7768143 17.48908302 49.14034201 17.48046875 52.50390625 C17.47935593 53.77472549 17.4782431 55.04554474 17.47709656 56.35487366 C17.47071671 57.52626389 17.46433685 58.69765411 17.45776367 59.90454102 C17.45395187 60.93917984 17.45014008 61.97381866 17.44621277 63.03981018 C17.3125 65.5 17.3125 65.5 16.3125 67.5 C12.5469898 67.02931123 8.97210439 66.44532074 5.3125 65.4375 C-2.74907965 63.41825156 -9.27683539 64.95862045 -16.6875 68.5 C-20.40501501 71.09892142 -22.85935723 73.75956863 -25.3125 77.5625 C-26.16714844 78.84833984 -26.16714844 78.84833984 -27.0390625 80.16015625 C-31.13257622 88.45388666 -32.12883702 96.74760337 -32.07226562 105.890625 C-32.0776384 106.97005875 -32.08301117 108.04949249 -32.08854675 109.16163635 C-32.09826364 111.48376689 -32.10128752 113.80593348 -32.09819031 116.12808228 C-32.09368711 119.80130215 -32.10777983 123.47404679 -32.12658691 127.1472168 C-32.1694582 136.25805326 -32.18065378 145.36887763 -32.19281006 154.47979736 C-32.2043177 162.20379861 -32.22779291 169.92757994 -32.26750183 177.65148926 C-32.28110519 181.27393727 -32.27689745 184.89609103 -32.27209473 188.51855469 C-32.28142913 190.72721743 -32.29159637 192.93587687 -32.30273438 195.14453125 C-32.29658615 196.1543959 -32.29043793 197.16426056 -32.28410339 198.20472717 C-32.29230606 199.12692551 -32.30050873 200.04912384 -32.30895996 200.99926758 C-32.30967247 201.80076736 -32.31038498 202.60226715 -32.31111908 203.42805481 C-32.78445501 206.03372914 -33.59312094 206.92008451 -35.6875 208.5 C-38.4197998 208.88095093 -38.4197998 208.88095093 -41.76367188 208.88818359 C-43.01506958 208.89764008 -44.26646729 208.90709656 -45.55578613 208.9168396 C-46.92261064 208.9114699 -48.28943226 208.90531695 -49.65625 208.8984375 C-51.05725252 208.90045843 -52.45825401 208.90337002 -53.85925293 208.90713501 C-56.79477967 208.91155753 -59.73003246 208.90512996 -62.66552734 208.89111328 C-66.42857416 208.87402101 -70.19097911 208.88386264 -73.95400238 208.90183067 C-76.84678993 208.91267069 -79.73942527 208.90922126 -82.63221741 208.9014473 C-84.01969987 208.89944587 -85.40719614 208.90190258 -86.79466248 208.90888596 C-88.73354834 208.91650305 -90.67248265 208.90283494 -92.61132812 208.88818359 C-93.71480591 208.88579681 -94.81828369 208.88341003 -95.9552002 208.88095093 C-98.6875 208.5 -98.6875 208.5 -100.3344593 207.46727943 C-102.43666557 204.41073637 -102.09999737 201.22339186 -102.06845093 197.64257812 C-102.0731309 196.83358818 -102.07781087 196.02459824 -102.08263266 195.19109344 C-102.09463156 192.47098056 -102.08510645 189.75136694 -102.07568359 187.03125 C-102.07974712 185.08495794 -102.08508777 183.13866818 -102.09161377 181.19238281 C-102.10531917 175.89908215 -102.09997542 170.60595641 -102.09047651 165.31265259 C-102.0828966 159.78069578 -102.08992087 154.24875425 -102.09463501 148.71679688 C-102.10009743 139.42575381 -102.09288818 130.13478222 -102.07861328 120.84375 C-102.06228586 110.09244814 -102.06757402 99.34131694 -102.0840925 88.59001923 C-102.0976935 79.36959113 -102.09963381 70.14921449 -102.09177649 60.9287796 C-102.08709234 55.41725364 -102.08649545 49.90580796 -102.09638596 44.39428711 C-102.10503318 39.21341946 -102.09907484 34.03277245 -102.08170319 28.85192871 C-102.07772632 26.94714729 -102.07889278 25.04234739 -102.08549118 23.13757324 C-102.09364953 20.54393622 -102.08345474 17.95101301 -102.06845093 15.35742188 C-102.07514309 14.597799 -102.08183526 13.83817612 -102.08873022 13.05553436 C-102.0316365 7.99195077 -102.0316365 7.99195077 -100.31073189 5.53187943 C-97.99604147 4.06044368 -96.26065735 4.13279943 -93.52929688 4.14355469 C-92.47810669 4.14055359 -91.4269165 4.13755249 -90.34387207 4.13446045 C-89.20945679 4.14680725 -88.0750415 4.15915405 -86.90625 4.171875 C-85.74121948 4.17374817 -84.57618896 4.17562134 -83.37585449 4.17755127 C-80.91118511 4.18427767 -78.44652651 4.1982037 -75.98193359 4.21875 C-72.20269892 4.24987483 -68.42388133 4.25971746 -64.64453125 4.265625 C-62.25259907 4.27479609 -59.86067114 4.28517219 -57.46875 4.296875 C-56.33433472 4.30112488 -55.19991943 4.30537476 -54.03112793 4.30975342 C-52.97993774 4.31936096 -51.92874756 4.32896851 -50.84570312 4.33886719 C-49.91987427 4.34569519 -48.99404541 4.35252319 -48.04016113 4.35955811 C-45.6875 4.5 -45.6875 4.5 -42.6875 5.5 C-39.4449193 11.95633846 -37.6875 20.31894982 -37.6875 27.5 C-34.64888947 24.62308937 -32.25941686 21.62086602 -29.875 18.1875 C-21.84306062 7.0788693 -14.2224503 0.10902548 0 0 Z " fill="#1F1A17" transform="translate(856.6875,197.5)"></path><path d="M0 0 C2.21735198 1.45274785 3.96623021 3.29435521 5.8359375 5.1640625 C6.1659375 3.1840625 6.4959375 1.2040625 6.8359375 -0.8359375 C9.4759375 -0.8359375 12.1159375 -0.8359375 14.8359375 -0.8359375 C14.93780407 6.26232573 15.00759832 13.36039869 15.05566406 20.45922852 C15.07571302 22.87140955 15.10295942 25.28354239 15.13769531 27.69555664 C15.18650801 31.17346123 15.20897433 34.65072022 15.2265625 38.12890625 C15.24720764 39.19801743 15.26785278 40.2671286 15.28912354 41.36863708 C15.29125758 48.57606353 14.3860823 55.17837712 9.42364502 60.74961853 C3.28952649 66.18690129 -2.66282863 66.6674922 -10.57421875 66.54296875 C-17.39017749 65.82354764 -22.28754595 63.36095992 -26.7265625 58.1640625 C-28.041567 55.41970528 -28.80985642 53.17481415 -29.1640625 50.1640625 C-26.09139001 49.80952337 -23.22205927 49.63316028 -20.1640625 50.1640625 C-17.9140625 53.0390625 -17.9140625 53.0390625 -16.1640625 56.1640625 C-12.13847445 58.62414409 -7.76807269 58.71473823 -3.1640625 58.1640625 C0.09387915 57.18053294 2.06461789 56.43019092 3.87109375 53.46484375 C5.9114206 48.63448855 6.11410203 44.35646705 5.8359375 39.1640625 C5.36542969 39.51339844 4.89492187 39.86273438 4.41015625 40.22265625 C3.78753906 40.67769531 3.16492187 41.13273437 2.5234375 41.6015625 C1.90855469 42.05402344 1.29367187 42.50648438 0.66015625 42.97265625 C-4.11394657 46.09064632 -9.68684192 45.69604972 -15.1640625 45.1640625 C-21.02877141 43.43914811 -24.74543422 40.24316738 -28.1640625 35.1640625 C-31.77253811 28.54367378 -32.33611307 21.17500336 -30.625 13.859375 C-28.6994936 8.2521311 -25.91963513 3.99116665 -20.7890625 0.8515625 C-14.6742541 -1.96446768 -6.30813732 -2.4367173 0 0 Z M-20.9765625 12.3515625 C-23.22643375 17.68020493 -23.8812053 22.84346461 -22.1015625 28.4140625 C-20.28196172 32.50204452 -18.02211692 34.80636258 -14.1640625 37.1640625 C-9.68618956 38.45606527 -6.27545269 38.54151577 -1.8515625 37.0390625 C2.98592436 33.66407167 5.61199125 29.94999024 6.8359375 24.1640625 C6.93346951 18.13875137 5.84432546 13.84051512 1.8359375 9.1640625 C-2.00119446 5.77835783 -5.79807712 5.65115078 -10.7265625 5.8125 C-15.39250371 6.48547229 -18.0522963 8.8222757 -20.9765625 12.3515625 Z " fill="#1F1A17" transform="translate(1318.1640625,444.8359375)"></path><path d="M0 0 C2.21735198 1.45274785 3.96623021 3.29435521 5.8359375 5.1640625 C6.1659375 3.1840625 6.4959375 1.2040625 6.8359375 -0.8359375 C9.4759375 -0.8359375 12.1159375 -0.8359375 14.8359375 -0.8359375 C14.8359375 14.0140625 14.8359375 28.8640625 14.8359375 44.1640625 C12.1959375 44.1640625 9.5559375 44.1640625 6.8359375 44.1640625 C6.5059375 42.5140625 6.1759375 40.8640625 5.8359375 39.1640625 C5.1140625 39.7828125 4.3921875 40.4015625 3.6484375 41.0390625 C-2.27437992 45.51408011 -7.93240913 45.97546821 -15.1640625 45.1640625 C-21.65783328 43.23673761 -25.87846769 39.35739168 -29.1328125 33.38671875 C-32.14833403 26.55991307 -32.33436464 18.83719509 -29.9140625 11.7890625 C-27.44553753 6.21497385 -24.28075846 2.45958038 -18.7109375 -0.10546875 C-12.88853394 -1.77539124 -5.7204177 -2.20969204 0 0 Z M-20.9765625 12.3515625 C-23.22643375 17.68020493 -23.8812053 22.84346461 -22.1015625 28.4140625 C-20.28196172 32.50204452 -18.02211692 34.80636258 -14.1640625 37.1640625 C-9.68618956 38.45606527 -6.27545269 38.54151577 -1.8515625 37.0390625 C2.98592436 33.66407167 5.61199125 29.94999024 6.8359375 24.1640625 C6.93346951 18.13875137 5.84432546 13.84051512 1.8359375 9.1640625 C-2.00119446 5.77835783 -5.79807712 5.65115078 -10.7265625 5.8125 C-15.39250371 6.48547229 -18.0522963 8.8222757 -20.9765625 12.3515625 Z " fill="#1F1A17" transform="translate(1049.1640625,444.8359375)"></path><path d="M0 0 C5.85826001 3.4731898 8.87218585 7.74101149 11.39453125 14.046875 C11.39453125 17.676875 11.39453125 21.306875 11.39453125 25.046875 C-0.15546875 25.046875 -11.70546875 25.046875 -23.60546875 25.046875 C-21.75539435 32.18042711 -21.75539435 32.18042711 -16.60546875 36.046875 C-13.15622555 37.7714966 -9.38415444 37.41297604 -5.60546875 37.046875 C-1.340797 35.23212107 -0.74758065 34.3310988 1.39453125 30.046875 C4.36453125 30.046875 7.33453125 30.046875 10.39453125 30.046875 C10.07228745 35.36389772 7.15932652 38.57365841 3.39453125 42.046875 C-2.78022467 45.95335324 -9.46141268 45.83280948 -16.60546875 45.046875 C-22.50855468 43.37512106 -26.17627854 40.14167188 -29.60546875 35.046875 C-33.21394436 28.42648628 -33.77751932 21.05781586 -32.06640625 13.7421875 C-30.1509979 8.16434999 -27.37494297 3.89135899 -22.29296875 0.734375 C-15.64080949 -2.31089115 -6.84098982 -2.502551 0 0 Z M-21.328125 10.1484375 C-23.10871461 12.51182733 -23.10871461 12.51182733 -23.60546875 18.046875 C-14.69546875 18.046875 -5.78546875 18.046875 3.39453125 18.046875 C1.72544532 11.28483774 1.72544532 11.28483774 -2.60546875 7.046875 C-9.79804573 4.64934934 -15.61044175 5.06306275 -21.328125 10.1484375 Z " fill="#1F1A17" transform="translate(1242.60546875,444.953125)"></path><path d="M0 0 C3.84460059 3.84460059 5.61015648 6.54219073 6 12 C2.92629012 12.35465883 0.05854433 12.53352846 -3 12 C-5.4375 9.0625 -5.4375 9.0625 -7 6 C-10.70025085 4.14987457 -14.96070655 4.53743575 -19 5 C-21.75609295 6.42044581 -21.75609295 6.42044581 -23 9 C-23.66666667 12 -23.66666667 12 -23 15 C-19.66633193 19.52742189 -15.22051294 20.49195445 -10.0625 22 C1.59152652 25.4237818 1.59152652 25.4237818 5.2890625 30.9140625 C7.15815289 36.39809693 6.8218881 42.26139056 4.375 47.4375 C0.08898361 52.06188611 -4.04075156 54.64986238 -10.296875 55.203125 C-16.90099902 55.32931845 -22.62615165 54.91077113 -27.79296875 50.453125 C-31.13713303 46.86271585 -32.75407614 44.04143905 -33 39 C-30.03 39 -27.06 39 -24 39 C-23.5875 39.94875 -23.175 40.8975 -22.75 41.875 C-21.28550642 44.93946871 -21.28550642 44.93946871 -19.3125 46.375 C-14.50413894 47.67455704 -10.52131261 47.71210378 -6.0625 45.625 C-3.90297594 44.16078274 -3.90297594 44.16078274 -3 42 C-2.63692833 38.65974061 -2.45071826 36.75434692 -4.46484375 33.98828125 C-8.55877364 30.77747953 -13.32390723 29.79286995 -18.26953125 28.37695312 C-23.58555053 26.75384241 -27.00526622 24.9008137 -31 21 C-33.09071372 16.81857256 -32.43450877 11.55341387 -32 7 C-30.04816107 3.02661362 -27.91333421 0.11531579 -24 -2 C-15.80517275 -4.7756673 -7.40552031 -4.88091111 0 0 Z " fill="#1F1A17" transform="translate(1438,435)"></path><path d="M0 0 C3.84460059 3.84460059 5.61015648 6.54219073 6 12 C2.92629012 12.35465883 0.05854433 12.53352846 -3 12 C-5.4375 9.0625 -5.4375 9.0625 -7 6 C-10.70025085 4.14987457 -14.96070655 4.53743575 -19 5 C-21.75609295 6.42044581 -21.75609295 6.42044581 -23 9 C-23.66666667 12 -23.66666667 12 -23 15 C-19.66633193 19.52742189 -15.22051294 20.49195445 -10.0625 22 C1.59152652 25.4237818 1.59152652 25.4237818 5.2890625 30.9140625 C7.15815289 36.39809693 6.8218881 42.26139056 4.375 47.4375 C0.08898361 52.06188611 -4.04075156 54.64986238 -10.296875 55.203125 C-16.90099902 55.32931845 -22.62615165 54.91077113 -27.79296875 50.453125 C-31.13713303 46.86271585 -32.75407614 44.04143905 -33 39 C-30.03 39 -27.06 39 -24 39 C-23.5875 39.94875 -23.175 40.8975 -22.75 41.875 C-21.28550642 44.93946871 -21.28550642 44.93946871 -19.3125 46.375 C-14.50413894 47.67455704 -10.52131261 47.71210378 -6.0625 45.625 C-3.90297594 44.16078274 -3.90297594 44.16078274 -3 42 C-2.63692833 38.65974061 -2.45071826 36.75434692 -4.46484375 33.98828125 C-8.55877364 30.77747953 -13.32390723 29.79286995 -18.26953125 28.37695312 C-23.58555053 26.75384241 -27.00526622 24.9008137 -31 21 C-33.09071372 16.81857256 -32.43450877 11.55341387 -32 7 C-30.04816107 3.02661362 -27.91333421 0.11531579 -24 -2 C-15.80517275 -4.7756673 -7.40552031 -4.88091111 0 0 Z " fill="#1F1A17" transform="translate(938,435)"></path><path d="M0 0 C5.26580624 2.4017704 8.95005107 6.10975062 11.390625 11.4140625 C14.19251476 18.95062707 14.31152333 25.56454969 11.52734375 33.1328125 C8.95326453 38.19910976 5.01646291 41.33933443 0.234375 44.24609375 C-7.63448179 46.43905384 -15.33617348 46.36229743 -22.67578125 42.56640625 C-28.1750755 38.93032258 -31.14009871 33.59577847 -32.578125 27.30859375 C-33.43746128 19.9159474 -32.47254269 13.56057018 -28.25390625 7.36328125 C-21.13984277 -1.56197424 -10.82664847 -2.90351027 0 0 Z M-22.390625 12.49609375 C-24.5929866 17.71221334 -24.87983166 22.4983538 -23.953125 28.05859375 C-22.09611371 32.44789317 -19.56967851 34.91450629 -15.703125 37.62109375 C-11.32392833 39.03789267 -7.66228943 38.71249815 -3.390625 37.12109375 C0.22948546 34.78813368 2.49959878 32.1531462 4.421875 28.30859375 C5.10702627 20.90671358 5.10466152 15.25699825 0.421875 9.30859375 C-3.34692918 5.87233112 -7.23705106 5.79649758 -12.140625 5.95703125 C-16.80656621 6.63000354 -19.4663588 8.96680695 -22.390625 12.49609375 Z " fill="#1F1A17" transform="translate(1647.578125,444.69140625)"></path><path d="M0 0 C5.26580624 2.4017704 8.95005107 6.10975062 11.390625 11.4140625 C14.19251476 18.95062707 14.31152333 25.56454969 11.52734375 33.1328125 C8.95326453 38.19910976 5.01646291 41.33933443 0.234375 44.24609375 C-7.63448179 46.43905384 -15.33617348 46.36229743 -22.67578125 42.56640625 C-28.1750755 38.93032258 -31.14009871 33.59577847 -32.578125 27.30859375 C-33.43746128 19.9159474 -32.47254269 13.56057018 -28.25390625 7.36328125 C-21.13984277 -1.56197424 -10.82664847 -2.90351027 0 0 Z M-22.390625 12.49609375 C-24.5929866 17.71221334 -24.87983166 22.4983538 -23.953125 28.05859375 C-22.09611371 32.44789317 -19.56967851 34.91450629 -15.703125 37.62109375 C-11.32392833 39.03789267 -7.66228943 38.71249815 -3.390625 37.12109375 C0.22948546 34.78813368 2.49959878 32.1531462 4.421875 28.30859375 C5.10702627 20.90671358 5.10466152 15.25699825 0.421875 9.30859375 C-3.34692918 5.87233112 -7.23705106 5.79649758 -12.140625 5.95703125 C-16.80656621 6.63000354 -19.4663588 8.96680695 -22.390625 12.49609375 Z " fill="#1F1A17" transform="translate(1482.578125,444.69140625)"></path><path d="M0 0 C5.26580624 2.4017704 8.95005107 6.10975062 11.390625 11.4140625 C14.19251476 18.95062707 14.31152333 25.56454969 11.52734375 33.1328125 C8.95326453 38.19910976 5.01646291 41.33933443 0.234375 44.24609375 C-7.63448179 46.43905384 -15.33617348 46.36229743 -22.67578125 42.56640625 C-28.1750755 38.93032258 -31.14009871 33.59577847 -32.578125 27.30859375 C-33.43746128 19.9159474 -32.47254269 13.56057018 -28.25390625 7.36328125 C-21.13984277 -1.56197424 -10.82664847 -2.90351027 0 0 Z M-22.390625 12.49609375 C-24.5929866 17.71221334 -24.87983166 22.4983538 -23.953125 28.05859375 C-22.09611371 32.44789317 -19.56967851 34.91450629 -15.703125 37.62109375 C-11.32392833 39.03789267 -7.66228943 38.71249815 -3.390625 37.12109375 C0.22948546 34.78813368 2.49959878 32.1531462 4.421875 28.30859375 C5.10702627 20.90671358 5.10466152 15.25699825 0.421875 9.30859375 C-3.34692918 5.87233112 -7.23705106 5.79649758 -12.140625 5.95703125 C-16.80656621 6.63000354 -19.4663588 8.96680695 -22.390625 12.49609375 Z " fill="#1F1A17" transform="translate(982.578125,444.69140625)"></path><path d="M0 0 C2.97 0 5.94 0 9 0 C10.7154487 4.35743741 12.42425649 8.71739779 14.12695312 13.07983398 C14.70716309 14.56362037 15.28918376 16.04670004 15.87304688 17.52905273 C16.71180241 19.65946325 17.54402056 21.79232763 18.375 23.92578125 C18.63748535 24.58838455 18.8999707 25.25098785 19.17041016 25.93367004 C20.27483362 28.78572234 21 30.91109914 21 34 C21.66 34 22.32 34 23 34 C23.16218018 33.42459473 23.32436035 32.84918945 23.49145508 32.25634766 C25.54989975 25.15889222 28.05783741 18.27838856 30.6875 11.375 C31.10322266 10.27542969 31.51894531 9.17585938 31.94726562 8.04296875 C32.96181911 5.36081585 33.97944606 2.67987417 35 0 C37.97 0 40.94 0 44 0 C41.78375517 6.90659245 39.21985869 13.60501297 36.47265625 20.31640625 C36.04246689 21.37230453 35.61227753 22.42820282 35.16905212 23.51609802 C34.26362397 25.7361681 33.35674467 27.95564684 32.44848633 30.17456055 C31.06597348 33.55400935 29.68992491 36.93603964 28.31445312 40.31835938 C27.43007548 42.48453344 26.54532244 44.65055429 25.66015625 46.81640625 C25.25273697 47.81869766 24.84531769 48.82098907 24.42555237 49.85365295 C22.16364396 55.36526244 19.73901927 60.70863273 17 66 C14.36 66 11.72 66 9 66 C10.62194509 60.1143053 12.43793844 54.69370183 15.328125 49.30078125 C17.12351947 43.15259904 13.99130659 36.93385298 11.62109375 31.328125 C11.28956802 30.52389099 10.9580423 29.71965698 10.61647034 28.89105225 C9.56436818 26.34082639 8.50186616 23.79512914 7.4375 21.25 C6.37055958 18.69020828 5.30602984 16.12951419 4.24781799 13.56610107 C3.59098656 11.97571435 2.92899969 10.38744493 2.26133728 8.80157471 C0 3.33671141 0 3.33671141 0 0 Z " fill="#1F1A17" transform="translate(1339,444)"></path><path d="M0 0 C10.23 0 20.46 0 31 0 C31 2.31 31 4.62 31 7 C23.41 7 15.82 7 8 7 C8 12.94 8 18.88 8 25 C14.93 25 21.86 25 29 25 C29 27.31 29 29.62 29 32 C22.07 32 15.14 32 8 32 C8 38.27 8 44.54 8 51 C15.59 51 23.18 51 31 51 C31 52.98 31 54.96 31 57 C20.77 57 10.54 57 0 57 C0 38.19 0 19.38 0 0 Z " fill="#1F1A17" transform="translate(1123,432)"></path><path d="M0 0 C2.64 0 5.28 0 8 0 C8.01981934 0.74572266 8.03963867 1.49144531 8.06005859 2.25976562 C8.15594411 5.67350188 8.26536441 9.08667879 8.375 12.5 C8.4059375 13.67304688 8.436875 14.84609375 8.46875 16.0546875 C8.67948957 22.30662818 8.97398408 28.05515053 11 34 C14.18602229 36.96374166 16.20050494 37.88578642 20.5 38.5 C24.70093265 37.89986676 26.79326564 36.75928305 30 34 C32.03545592 30.04787385 32.29754847 26.57608275 32.4140625 22.16796875 C32.45273438 20.87568359 32.49140625 19.58339844 32.53125 18.25195312 C32.56270014 16.89714005 32.59394761 15.54232225 32.625 14.1875 C32.6632175 12.81312728 32.7022714 11.43877756 32.7421875 10.06445312 C32.83635404 6.70977011 32.921982 3.35509107 33 0 C35.64 0 38.28 0 41 0 C41 14.85 41 29.7 41 45 C38.36 45 35.72 45 33 45 C32.505 43.02 32.505 43.02 32 41 C31.236875 41.639375 30.47375 42.27875 29.6875 42.9375 C24.83108679 46.66451479 19.90570759 46.62994214 14 46 C8.74878614 44.35396363 4.83757724 41.80205378 2 37 C-0.563155 29.42038451 -0.22599223 21.93177426 -0.125 14 C-0.11494978 12.63932951 -0.10582754 11.27865183 -0.09765625 9.91796875 C-0.0742082 6.61179353 -0.04138856 3.3059912 0 0 Z " fill="#1F1A17" transform="translate(1521,444)"></path><path d="M0 0 C5.39808868 7.63844033 4.4514831 16.05681148 4.25 25 C4.22990643 26.55336242 4.2116607 28.1067499 4.1953125 29.66015625 C4.15153679 33.44072979 4.08266974 37.22008511 4 41 C1.36 41 -1.28 41 -4 41 C-4.0093457 40.08710205 -4.01869141 39.1742041 -4.02832031 38.23364258 C-4.07245181 34.83183952 -4.134114 31.43127833 -4.20751953 28.0300293 C-4.23566611 26.5607455 -4.25691209 25.09131205 -4.27099609 23.62182617 C-4.2925153 21.50361886 -4.33920334 19.38719847 -4.390625 17.26953125 C-4.41157227 15.99698486 -4.43251953 14.72443848 -4.45410156 13.41333008 C-5.08425757 9.47316412 -6.22081219 7.80747388 -9 5 C-12.71710563 3.14144718 -16.95277281 3.42091561 -21 4 C-24.34625024 6.52676039 -25.67977847 8.03933542 -27 12 C-27.15109093 14.20959253 -27.24873801 16.42300047 -27.31640625 18.63671875 C-27.35830078 19.93544922 -27.40019531 21.23417969 -27.44335938 22.57226562 C-27.48316987 23.94400761 -27.52288216 25.31575244 -27.5625 26.6875 C-27.60570835 28.07097645 -27.64932339 29.45444027 -27.69335938 30.83789062 C-27.79958028 34.22515719 -27.90162358 37.61249799 -28 41 C-30.64 41 -33.28 41 -36 41 C-36 26.15 -36 11.3 -36 -4 C-33.36 -4 -30.72 -4 -28 -4 C-27.67 -2.68 -27.34 -1.36 -27 0 C-26.113125 -0.639375 -25.22625 -1.27875 -24.3125 -1.9375 C-16.68184625 -6.68866177 -6.92896131 -5.81459348 0 0 Z " fill="#1F1A17" transform="translate(1704,448)"></path><path d="M0 0 C5.39808868 7.63844033 4.4514831 16.05681148 4.25 25 C4.22990643 26.55336242 4.2116607 28.1067499 4.1953125 29.66015625 C4.15153679 33.44072979 4.08266974 37.22008511 4 41 C1.36 41 -1.28 41 -4 41 C-4.0093457 40.08710205 -4.01869141 39.1742041 -4.02832031 38.23364258 C-4.07245181 34.83183952 -4.134114 31.43127833 -4.20751953 28.0300293 C-4.23566611 26.5607455 -4.25691209 25.09131205 -4.27099609 23.62182617 C-4.2925153 21.50361886 -4.33920334 19.38719847 -4.390625 17.26953125 C-4.41157227 15.99698486 -4.43251953 14.72443848 -4.45410156 13.41333008 C-5.08425757 9.47316412 -6.22081219 7.80747388 -9 5 C-12.71710563 3.14144718 -16.95277281 3.42091561 -21 4 C-24.34625024 6.52676039 -25.67977847 8.03933542 -27 12 C-27.15109093 14.20959253 -27.24873801 16.42300047 -27.31640625 18.63671875 C-27.35830078 19.93544922 -27.40019531 21.23417969 -27.44335938 22.57226562 C-27.48316987 23.94400761 -27.52288216 25.31575244 -27.5625 26.6875 C-27.60570835 28.07097645 -27.64932339 29.45444027 -27.69335938 30.83789062 C-27.79958028 34.22515719 -27.90162358 37.61249799 -28 41 C-30.64 41 -33.28 41 -36 41 C-36 26.15 -36 11.3 -36 -4 C-33.36 -4 -30.72 -4 -28 -4 C-27.67 -2.68 -27.34 -1.36 -27 0 C-26.113125 -0.639375 -25.22625 -1.27875 -24.3125 -1.9375 C-16.68184625 -6.68866177 -6.92896131 -5.81459348 0 0 Z " fill="#1F1A17" transform="translate(1199,448)"></path><path d="M0 0 C2.31 0 4.62 0 7 0 C11.29 9.57 15.58 19.14 20 29 C22.54271402 25.60971464 24.04079512 22.96475477 25.69921875 19.140625 C26.18583984 18.02558594 26.67246094 16.91054687 27.17382812 15.76171875 C27.67333984 14.60285156 28.17285156 13.44398438 28.6875 12.25 C29.45416992 10.48849609 29.45416992 10.48849609 30.23632812 8.69140625 C31.4955925 5.79627508 32.74995275 2.89911998 34 0 C36.31 0 38.62 0 41 0 C41 13.2 41 26.4 41 40 C39.02 40 37.04 40 35 40 C34.67 32.08 34.34 24.16 34 16 C30.37 23.92 26.74 31.84 23 40 C21.35 40 19.7 40 18 40 C14.37 31.75 10.74 23.5 7 15 C6.67 23.25 6.34 31.5 6 40 C4.02 40 2.04 40 0 40 C0 26.8 0 13.6 0 0 Z " fill="#1F1A17" transform="translate(1748,138)"></path><path d="M0 0 C2.97 0 5.94 0 9 0 C9 3.63 9 7.26 9 11 C12.63 11 16.26 11 20 11 C20 13.31 20 15.62 20 18 C16.37 18 12.74 18 9 18 C9.11798252 22.11193736 9.24221059 26.22363288 9.37231445 30.33520508 C9.41571434 31.73489199 9.45738564 33.13463359 9.49731445 34.53442383 C9.55489445 36.54261495 9.61914 38.55061149 9.68359375 40.55859375 C9.72025146 41.76829834 9.75690918 42.97800293 9.79467773 44.22436523 C9.68938266 46.90705456 9.68938266 46.90705456 11 48 C12.51469448 48.23192865 14.03754562 48.41215238 15.5625 48.5625 C16.38878906 48.64628906 17.21507812 48.73007812 18.06640625 48.81640625 C19.02353516 48.90728516 19.02353516 48.90728516 20 49 C20 51.31 20 53.62 20 56 C17.93867858 56.10864945 15.87568679 56.18588321 13.8125 56.25 C12.66394531 56.29640625 11.51539063 56.3428125 10.33203125 56.390625 C6.2371788 55.91057196 4.76230415 55.04196905 2 52 C-0.98219667 45.41952411 -0.22166346 38.15239303 -0.125 31.0625 C-0.11597656 29.80630859 -0.10695313 28.55011719 -0.09765625 27.25585938 C-0.07419249 24.17037478 -0.04136201 21.08528795 0 18 C-1.65 18 -3.3 18 -5 18 C-5 15.69 -5 13.38 -5 11 C-3.35 11 -1.7 11 0 11 C0 7.37 0 3.74 0 0 Z " fill="#1F1A17" transform="translate(1573,433)"></path><path d="M0 0 C0 2.97 0 5.94 0 9 C-2.24609375 9.42317708 -4.4921875 9.84635417 -6.73828125 10.26953125 C-9.29039274 11.09378833 -10.35316788 11.90725641 -12 14 C-13.12183708 17.36551123 -13.20800968 20.09060232 -13.31640625 23.63671875 C-13.35830078 24.93544922 -13.40019531 26.23417969 -13.44335938 27.57226562 C-13.48316987 28.94400761 -13.52288216 30.31575244 -13.5625 31.6875 C-13.60570835 33.07097645 -13.64932339 34.45444027 -13.69335938 35.83789062 C-13.79958028 39.22515719 -13.90162358 42.61249799 -14 46 C-16.64 46 -19.28 46 -22 46 C-22 31.15 -22 16.3 -22 1 C-19.36 1 -16.72 1 -14 1 C-13.67 2.32 -13.34 3.64 -13 5 C-12.113125 4.360625 -11.22625 3.72125 -10.3125 3.0625 C-6.73069322 0.83231842 -4.16768331 0 0 0 Z " fill="#1F1A17" transform="translate(1284,443)"></path><path d="M0 0 C0 2.97 0 5.94 0 9 C-2.24609375 9.42317708 -4.4921875 9.84635417 -6.73828125 10.26953125 C-9.29039274 11.09378833 -10.35316788 11.90725641 -12 14 C-13.12183708 17.36551123 -13.20800968 20.09060232 -13.31640625 23.63671875 C-13.35830078 24.93544922 -13.40019531 26.23417969 -13.44335938 27.57226562 C-13.48316987 28.94400761 -13.52288216 30.31575244 -13.5625 31.6875 C-13.60570835 33.07097645 -13.64932339 34.45444027 -13.69335938 35.83789062 C-13.79958028 39.22515719 -13.90162358 42.61249799 -14 46 C-16.64 46 -19.28 46 -22 46 C-22 31.15 -22 16.3 -22 1 C-19.36 1 -16.72 1 -14 1 C-13.67 2.32 -13.34 3.64 -13 5 C-12.113125 4.360625 -11.22625 3.72125 -10.3125 3.0625 C-6.73069322 0.83231842 -4.16768331 0 0 0 Z " fill="#1F1A17" transform="translate(1097,443)"></path><path d="M0 0 C2.64 0 5.28 0 8 0 C8 19.8 8 39.6 8 60 C5.36 60 2.72 60 0 60 C0 40.2 0 20.4 0 0 Z " fill="#1F1A17" transform="translate(1504,429)"></path><path d="M0 0 C2.64 0 5.28 0 8 0 C8 19.8 8 39.6 8 60 C5.36 60 2.72 60 0 60 C0 40.2 0 20.4 0 0 Z " fill="#1F1A17" transform="translate(1003,429)"></path><path d="M0 0 C2.64 0 5.28 0 8 0 C8 14.85 8 29.7 8 45 C5.36 45 2.72 45 0 45 C0 30.15 0 15.3 0 0 Z " fill="#1F1A17" transform="translate(1600,444)"></path><path d="M0 0 C9.24 0 18.48 0 28 0 C28 1.65 28 3.3 28 5 C24.37 5 20.74 5 17 5 C17 16.88 17 28.76 17 41 C15.02 41 13.04 41 11 41 C11 29.12 11 17.24 11 5 C7.37 5 3.74 5 0 5 C0 3.35 0 1.7 0 0 Z " fill="#1F1A17" transform="translate(1715,137)"></path><path d="M0 0 C3 0.25 3 0.25 5 2.25 C5.3125 5.75 5.3125 5.75 5 9.25 C2 11.25 2 11.25 -1.125 10.9375 C-4 10.25 -4 10.25 -5 9.25 C-5.1875 5.8125 -5.1875 5.8125 -5 2.25 C-3 0.25 -3 0.25 0 0 Z " fill="#1F1A17" transform="translate(1604,426.75)"></path></svg>